<?xml version="1.0" encoding="UTF-8" standalone="no"?>
<svg
   xmlns:dc="http://purl.org/dc/elements/1.1/"
   xmlns:cc="http://creativecommons.org/ns#"
   xmlns:rdf="http://www.w3.org/1999/02/22-rdf-syntax-ns#"
   xmlns:svg="http://www.w3.org/2000/svg"
   xmlns="http://www.w3.org/2000/svg"
   xmlns:sodipodi="http://sodipodi.sourceforge.net/DTD/sodipodi-0.dtd"
   xmlns:inkscape="http://www.inkscape.org/namespaces/inkscape"
   sodipodi:docname="clippybase.svg"
   inkscape:version="1.0 (4035a4fb49, 2020-05-01)"
   id="svg8"
   version="1.1"
   viewBox="0 0 14.495747 25.082935"
   height="25.082935mm"
   width="14.495747mm">
  <defs
     id="defs2">
    <inkscape:path-effect
       lpeversion="1"
       is_visible="true"
       id="path-effect857"
       effect="spiro" />
    <inkscape:path-effect
       simplify_just_coalesce="false"
       simplify_individual_paths="false"
       helper_size="0"
       smooth_angles="360"
       threshold="0.000408163"
       steps="1"
       lpeversion="1"
       is_visible="true"
       id="path-effect855"
       effect="simplify" />
    <inkscape:path-effect
       simplify_just_coalesce="false"
       simplify_individual_paths="false"
       helper_size="0"
       smooth_angles="360"
       threshold="0.000408163"
       steps="1"
       lpeversion="1"
       is_visible="true"
       id="path-effect849"
       effect="simplify" />
    <inkscape:path-effect
       lpeversion="1"
       is_visible="true"
       id="path-effect845"
       effect="spiro" />
    <inkscape:path-effect
       simplify_just_coalesce="false"
       simplify_individual_paths="false"
       helper_size="0"
       smooth_angles="360"
       threshold="0.000408163"
       steps="1"
       lpeversion="1"
       is_visible="true"
       id="path-effect843"
       effect="simplify" />
  </defs>
  <sodipodi:namedview
     inkscape:window-maximized="0"
     inkscape:window-y="9"
     inkscape:window-x="99"
     inkscape:window-height="1041"
     inkscape:window-width="1274"
     showgrid="false"
     inkscape:document-rotation="0"
     inkscape:current-layer="layer1"
     inkscape:document-units="mm"
     inkscape:cy="55.922422"
     inkscape:cx="-40.021273"
     inkscape:zoom="1.979899"
     inkscape:pageshadow="2"
     inkscape:pageopacity="0.0"
     borderopacity="1.0"
     bordercolor="#666666"
     pagecolor="#ffffff"
     id="base" />
  <metadata
     id="metadata5">
    <rdf:RDF>
      <cc:Work
         rdf:about="">
        <dc:format>image/svg+xml</dc:format>
        <dc:type
           rdf:resource="http://purl.org/dc/dcmitype/StillImage" />
        <dc:title></dc:title>
      </cc:Work>
    </rdf:RDF>
  </metadata>
  <g
     transform="translate(-67.500789,-12.003013)"
     id="layer1"
     inkscape:groupmode="layer"
     inkscape:label="Layer 1">
    <path
       d="m 71.413197,25.920548 c 0.02365,0.397289 0.01865,0.79559 0.01527,1.193359 0.0019,0.434628 0.0013,0.869254 0.0029,1.303883 -0.03454,0.393543 0.03276,0.769672 0.123565,1.149548 0.06933,0.361754 0.211156,0.705496 0.381167,1.030705 0.182949,0.289224 0.347803,0.5895 0.536586,0.874946 0.16383,0.25799 0.386117,0.426632 0.637598,0.588616 0.230042,0.166563 0.492387,0.248412 0.769075,0.293132 0.301175,0.01693 0.59854,0.06341 0.897641,0.09997 0.311171,0.0264 0.625856,0.07615 0.936781,0.02957 1.245013,-0.367075 1.820111,-0.783158 2.239034,-1.756058 0.109143,-0.308261 0.221464,-0.615609 0.306554,-0.931426 0.08802,-0.324688 0.10401,-0.660146 0.117234,-0.994293 0.0089,-0.301911 0.01119,-0.604031 0.0073,-0.906042 -0.0013,-0.346821 -0.0035,-0.693632 -0.0072,-1.04044 -0.03115,-0.529458 0.062,-1.050098 0.133045,-1.572287 0.07581,-0.568899 0.121984,-1.140765 0.181277,-1.711711 0.07211,-0.586463 0.0584,-1.178422 0.07161,-1.768185 0.01558,-0.588285 -0.01786,-1.176969 0.02474,-1.764351 0.05964,-0.607676 0.07391,-1.217683 0.09714,-1.827412 0.02755,-0.537664 0.01561,-1.075997 0.01765,-1.614033 0.0024,-0.511149 0.02893,-1.019961 -0.05662,-1.525569 -0.07396,-0.629257 -0.521184,-1.064706 -0.942649,-1.497786 -0.342011,-0.317265 -0.67219,-0.659043 -1.103723,-0.854973 -0.275336,-0.125009 -0.569849,-0.203193 -0.857882,-0.290596 -0.76631,-0.229047 -1.553287,-0.358484 -2.352085,-0.376066 -0.352986,0.02301 -0.711444,0.104257 -1.021731,0.281262 -1.806977,1.030801 -1.301628,0.649417 -2.028984,1.216429 -0.345972,0.272846 -0.582075,0.646257 -0.809929,1.016702 -0.319135,0.518714 -0.620469,1.047856 -0.943412,1.564548 -0.245168,0.398481 -0.426304,0.830123 -0.617458,1.255768 -0.224435,0.387691 -0.374044,0.796308 -0.44088,1.238029 -0.09886,0.375642 -0.141269,0.757439 -0.154363,1.144458 -0.01828,0.434918 -0.01844,0.870218 -0.02106,1.305415 -2.65e-4,0.392951 -0.0013,0.785935 1.82e-4,1.17889 0.05305,0.417399 0.07377,0.838829 0.134509,1.255019 0.07451,0.476647 0.102976,0.957776 0.166939,1.435705 0.06437,0.452089 0.08444,0.908943 0.09475,1.364996 0.0097,0.410631 0.0094,0.821407 0.006,1.232112 0.01021,0.570947 0.116999,1.135951 0.179004,1.703125 0.07724,0.507119 0.155022,1.013688 0.24244,1.519037 0.109027,0.483679 0.273299,0.953368 0.452289,1.415153 0.222325,0.550034 0.412658,1.111935 0.651291,1.655281 0.176059,0.395748 0.454282,0.729803 0.734086,1.055536 0.338884,0.386903 0.709637,0.730203 1.147699,0.999782 0.429954,0.277151 0.893093,0.475024 1.385229,0.607065 0.570489,0.167888 1.132221,0.359243 1.716299,0.475001 0.389083,0.05072 0.806696,0.109733 1.193668,0.006 0.0957,-0.02566 0.186571,-0.06676 0.279858,-0.100143 1.094464,-0.535125 2.234805,-1.088138 2.930876,-2.111031 0.289029,-0.403579 0.441643,-0.878869 0.560674,-1.355719 0.140499,-0.490935 0.204718,-0.998355 0.300066,-1.499029 0.08251,-0.448757 0.165576,-0.894678 0.212522,-1.348944 0.02125,-0.440224 0.143441,-0.865462 0.226991,-1.296098 0.09839,-0.393928 0.261914,-0.764135 0.45235,-1.121146 0.23413,-0.349564 0.515673,-0.657648 0.884756,-0.862102 -2.720493,1.615263 -1.887384,0.973098 -1.241015,0.785289 0,0 1.567596,-1.180587 1.567596,-1.180587 v 0 c -0.801857,0.05964 -1.549271,0.805699 -2.15047,1.104209 -0.344263,0.24756 -0.61101,0.584301 -0.825855,0.948124 -0.19141,0.375351 -0.363281,0.760868 -0.440079,1.17829 -0.0804,0.434594 -0.194153,0.865145 -0.215553,1.308375 -0.04809,0.448813 -0.140454,0.889373 -0.215593,1.334093 -0.08667,0.497155 -0.153048,0.999413 -0.304271,1.48263 -0.13584,0.45829 -0.288761,0.908889 -0.587626,1.290905 -0.667179,0.857038 -1.674715,1.263059 0.610576,-3.8e-5 0.08612,-0.0476 -0.169479,0.100034 -0.254217,0.150051 -0.08284,0.0404 -0.162414,0.08831 -0.248515,0.121187 -0.362656,0.138462 -0.773269,0.08992 -1.148487,0.05325 -0.586796,-0.08894 -1.157592,-0.249595 -1.715363,-0.45221 -0.471051,-0.137607 -0.938509,-0.293526 -1.353055,-0.563832 -0.418378,-0.257681 -0.794208,-0.570669 -1.099434,-0.958826 -0.266226,-0.312016 -0.542383,-0.626407 -0.723016,-0.997353 -0.243742,-0.536373 -0.440619,-1.092779 -0.645885,-1.644676 -0.16468,-0.455427 -0.322191,-0.91594 -0.424924,-1.389708 -0.09028,-0.497956 -0.16924,-0.997918 -0.262604,-1.495311 -0.06903,-0.564618 -0.140798,-1.131491 -0.133591,-1.701438 -0.0031,-0.41223 -0.0013,-0.824528 -0.01119,-1.236677 -0.01958,-0.461547 -0.05598,-0.921765 -0.110677,-1.380594 -0.0721,-0.476834 -0.09231,-0.958024 -0.163955,-1.434955 -0.04798,-0.410689 -0.08503,-0.823433 -0.117107,-1.235536 5.29e-4,-0.392438 -0.0019,-0.784894 -0.0021,-1.177329 -0.0013,-0.431067 -5.29e-4,-0.86248 0.02133,-1.293091 0.0318,-0.379835 0.08786,-0.755291 0.170659,-1.127621 0.08425,-0.42052 0.246851,-0.808902 0.44882,-1.187074 0.19262,-0.416065 0.383659,-0.834366 0.616638,-1.229821 0.313317,-0.524141 0.621549,-1.051597 0.95336,-1.564334 0.238416,-0.356247 0.49349,-0.705057 0.847833,-0.955623 0.639538,-0.442423 0.23725,-0.156513 -1.289679,0.712843 -0.07066,0.04023 0.139345,-0.08413 0.211897,-0.120844 0.242115,-0.122518 0.499702,-0.205395 0.7685,-0.244088 0.798137,-0.02256 1.586085,0.08293 2.354811,0.304091 0.281961,0.08802 0.539885,0.158628 0.809442,0.278534 0.416211,0.185141 0.749678,0.493486 1.077457,0.801965 0.395772,0.41221 0.784895,0.821385 0.853927,1.414066 0.07675,0.493909 0.04275,0.993959 0.05263,1.49228 7.94e-4,0.535351 -0.01148,1.070634 -0.01394,1.605985 -0.01302,0.610042 -0.05449,1.218236 -0.106196,1.826183 -0.02439,0.588973 -0.0033,1.179448 -0.01503,1.768821 -0.0024,0.585979 -0.02585,1.170824 -0.08134,1.754384 -0.05508,0.568197 -0.119189,1.135628 -0.179911,1.703217 -0.0741,0.534042 -0.173649,1.068077 -0.148542,1.609727 -0.0032,0.348813 -0.0046,0.697627 -0.0042,1.046451 -0.0028,0.298902 0.0024,0.597921 -0.0086,0.896715 -0.01535,0.321096 -0.04428,0.642739 -0.13888,0.951775 -0.0977,0.303326 -0.187926,0.609513 -0.313907,0.902827 -0.08141,0.161806 -0.165534,0.324834 -0.283446,0.464206 -0.0336,0.03972 -0.156837,0.134446 -0.111109,0.109625 1.466742,-0.796113 2.050664,-1.318416 1.493682,-0.830154 -0.284076,0.129077 -0.597451,0.05623 -0.899745,0.04011 -0.296807,-0.03296 -0.588304,-0.10186 -0.887468,-0.104693 -0.25549,-0.0232 -0.505098,-0.06741 -0.721125,-0.216482 -0.225073,-0.15361 -0.450802,-0.278795 -0.601667,-0.518404 -0.184891,-0.279823 -0.350467,-0.571926 -0.530421,-0.854964 -0.161835,-0.312325 -0.291762,-0.641514 -0.358196,-0.987999 -0.08475,-0.363583 -0.134548,-0.729083 -0.113525,-1.103821 0.0016,-0.43561 0.0011,-0.871214 0.0029,-1.306825 -0.0035,-0.402965 -0.0079,-0.8064 0.01527,-1.20891 0,0 -1.766419,0.900035 -1.766419,0.900035 z"
       id="path895"
       style="fill:#666666;fill-rule:evenodd;stroke:#4d4d4d;stroke-width:0.1;stroke-linecap:round;stroke-miterlimit:4;stroke-dasharray:none;stroke-opacity:1" />
    <ellipse
       ry="1.8908535"
       rx="1.7572186"
       cy="22.317003"
       cx="76.171806"
       id="path859"
       style="fill:#f9f9f9;fill-rule:evenodd;stroke:#1a1a1a;stroke-width:0.660066;stroke-linecap:round;stroke-miterlimit:4;stroke-dasharray:none;stroke-opacity:1" />
    <ellipse
       style="fill:#f9f9f9;fill-rule:evenodd;stroke:#1a1a1a;stroke-width:0.7;stroke-linecap:round;stroke-miterlimit:4;stroke-dasharray:none;stroke-opacity:1"
       id="path859-0"
       cx="70.96006"
       cy="22.183372"
       rx="1.8040693"
       ry="2.0713389" />
    <ellipse
       ry="0.53453904"
       rx="0.46772167"
       cy="22.584276"
       cx="76.372276"
       id="path876"
       style="fill:#1a1a1a;fill-rule:evenodd;stroke:#1a1a1a;stroke-width:0.7;stroke-linecap:round;stroke-miterlimit:4;stroke-dasharray:none;stroke-opacity:1" />
    <ellipse
       style="fill:#1a1a1a;fill-rule:evenodd;stroke:#1a1a1a;stroke-width:0.7;stroke-linecap:round;stroke-miterlimit:4;stroke-dasharray:none;stroke-opacity:1"
       id="path876-3"
       cx="71.093689"
       cy="22.317007"
       rx="0.46772167"
       ry="0.53453904" />
  </g>
</svg>
